M48
; DRILL file {KiCad 8.0.9-8.0.9-0~ubuntu24.04.1} date 2026-03-27T19:26:57-0300
; FORMAT={-:-/ absolute / metric / decimal}
; #@! TF.CreationDate,2026-03-27T19:26:57-03:00
; #@! TF.GenerationSoftware,Kicad,Pcbnew,8.0.9-8.0.9-0~ubuntu24.04.1
; #@! TF.FileFunction,Plated,1,2,PTH
FMAT,2
METRIC
; #@! TA.AperFunction,Plated,PTH,ComponentDrill
T1C0.750
; #@! TA.AperFunction,Plated,PTH,ComponentDrill
T2C0.800
; #@! TA.AperFunction,Plated,PTH,ComponentDrill
T3C0.900
; #@! TA.AperFunction,Plated,PTH,ComponentDrill
T4C0.950
; #@! TA.AperFunction,Plated,PTH,ViaDrill
T5C1.000
; #@! TA.AperFunction,Plated,PTH,ComponentDrill
T6C1.000
; #@! TA.AperFunction,Plated,PTH,ComponentDrill
T7C1.100
%
G90
G05
T1
X67.125Y12.25
X69.125Y12.25
X71.125Y12.25
X73.125Y12.25
T2
X19.75Y28.25
X23.25Y28.25
X67.75Y47.04
X67.75Y44.5
X70.29Y47.0
X70.29Y44.5
X71.25Y34.5
X72.83Y47.0
X72.83Y44.5
X74.75Y34.5
X75.37Y47.0
X75.37Y44.5
T3
X7.21Y67.75
X9.75Y67.75
T4
X8.25Y12.477
X10.75Y12.477
X13.25Y12.477
X24.75Y76.75
X26.77Y12.227
X27.25Y76.75
X29.27Y12.227
X29.75Y76.75
X31.77Y12.227
X38.5Y12.477
X41.0Y12.477
X43.5Y12.477
X50.5Y12.227
X53.0Y12.227
X55.5Y12.227
T5
X25.75Y49.75
X26.5Y24.75
X26.5Y19.5
X33.5Y49.75
X33.5Y33.25
X33.5Y17.5
X47.5Y8.0
X55.75Y8.25
X56.0Y20.0
X56.75Y17.0
X59.75Y30.5
X61.729Y55.343
X61.75Y17.0
X62.25Y53.0
X66.273Y20.023
X66.5Y30.0
X68.0Y55.25
X73.5Y20.75
X73.773Y53.023
X76.875Y30.125
X80.25Y20.75
X83.0Y23.75
T6
X8.25Y6.75
X10.79Y6.75
X11.75Y33.79
X11.75Y31.25
X19.25Y43.75
X19.25Y38.75
X19.49Y73.67
X19.5Y78.75
X22.0Y59.75
X22.0Y57.21
X26.71Y6.5
X29.25Y6.5
X30.25Y32.515
X30.25Y29.975
X36.5Y78.45
X36.5Y75.91
X36.5Y73.37
X36.5Y70.83
X36.5Y68.29
X36.5Y65.75
X36.5Y63.21
X36.5Y60.67
X36.5Y58.13
X36.5Y55.59
X36.5Y53.05
X36.5Y50.51
X36.5Y47.97
X36.5Y45.43
X36.5Y42.89
X36.5Y40.35
X36.5Y37.81
X36.5Y35.27
X36.5Y32.73
X36.5Y30.19
X38.485Y6.75
X41.025Y6.75
X50.46Y6.5
X52.0Y78.45
X52.0Y75.91
X52.0Y73.37
X52.0Y70.83
X52.0Y68.29
X52.0Y65.75
X52.0Y63.21
X52.0Y60.67
X52.0Y58.13
X52.0Y55.59
X52.0Y53.05
X52.0Y50.51
X52.0Y47.97
X52.0Y45.43
X52.0Y42.89
X52.0Y40.35
X52.0Y37.81
X52.0Y35.27
X52.0Y32.73
X52.0Y30.19
X53.0Y6.5
X59.71Y23.25
X62.25Y23.25
X64.255Y39.445
X66.795Y39.445
X70.585Y17.75
X73.125Y17.75
T7
X5.26Y53.73
X5.26Y51.19
X5.26Y48.65
T6
G00X9.0Y77.5
M15
G01X9.0Y75.5
M16
G05
G00X11.0Y71.8
M15
G01X13.0Y71.8
M16
G05
G00X15.0Y77.5
M15
G01X15.0Y75.5
M16
G05
M30
